<?xml version="1.0" encoding="UTF-8"?>
<svg id="Capa_1" enable-background="new 0 0 512 512" version="1.1" viewBox="0 0 512 512" xml:space="preserve" xmlns="http://www.w3.org/2000/svg">
		<path d="m411.11 100.88c-28.078-28.078-44.876-53.48-51.771-64.902l-90.633 10.29c12.466 20.185 41.253 62.768 87.751 109.26 46.494 46.494 89.075 75.281 109.26 87.751l10.291-90.632c-11.423-6.895-36.825-23.693-64.903-51.772z"/>
		<path d="m467.17 44.829-44.829-44.829-36.331 22.061c6.56 10.6 21.76 33.054 46.317 57.611 24.551 24.551 47.001 39.748 57.612 46.315l22.06-36.329-44.829-44.829z"/>
		<path d="m335.25 176.75c-45.363-45.363-74.392-86.67-88.992-109.71l-246.26 299.01s19.806 38.577 63.592 82.363c43.787 43.786 82.363 63.592 82.363 63.592l299.01-246.26c-23.044-14.6-64.351-43.629-109.72-88.993z"/>
</svg>